<svg width="286" height="407" viewBox="0 0 286 407" fill="none" xmlns="http://www.w3.org/2000/svg">
<rect x="104.5" y="30.5" width="99" height="99" rx="49.5" stroke="black"/>
<path d="M143.32 77V68.2727H146.269C146.951 68.2727 147.511 68.3892 147.948 68.6222C148.386 68.8523 148.71 69.169 148.92 69.5724C149.13 69.9759 149.235 70.4347 149.235 70.9489C149.235 71.4631 149.13 71.919 148.92 72.3168C148.71 72.7145 148.387 73.027 147.953 73.2543C147.518 73.4787 146.963 73.5909 146.286 73.5909H143.9V72.6364H146.252C146.718 72.6364 147.093 72.5682 147.377 72.4318C147.664 72.2955 147.872 72.1023 147.999 71.8523C148.13 71.5994 148.195 71.2983 148.195 70.9489C148.195 70.5994 148.13 70.294 147.999 70.0327C147.869 69.7713 147.66 69.5696 147.373 69.4276C147.086 69.2827 146.707 69.2102 146.235 69.2102H144.377V77H143.32ZM147.428 73.0795L149.576 77H148.349L146.235 73.0795H147.428ZM150.996 77V68.2727H156.263V69.2102H152.053V72.1591H155.991V73.0966H152.053V76.0625H156.331V77H150.996ZM160.861 77H158.168V68.2727H160.981C161.827 68.2727 162.552 68.4474 163.154 68.7969C163.756 69.1435 164.218 69.642 164.539 70.2926C164.86 70.9403 165.02 71.7159 165.02 72.6193C165.02 73.5284 164.858 74.3111 164.535 74.9673C164.211 75.6207 163.739 76.1236 163.12 76.4759C162.501 76.8253 161.748 77 160.861 77ZM159.225 76.0625H160.793C161.515 76.0625 162.113 75.9233 162.587 75.6449C163.062 75.3665 163.415 74.9702 163.648 74.456C163.881 73.9418 163.998 73.3295 163.998 72.6193C163.998 71.9148 163.883 71.3082 163.653 70.7997C163.422 70.2884 163.079 69.8963 162.621 69.6236C162.164 69.348 161.594 69.2102 160.912 69.2102H159.225V76.0625ZM136.165 88.3182C136.165 87.2443 136.304 86.2571 136.583 85.3565C136.864 84.4531 137.265 83.6222 137.784 82.8636H138.671C138.466 83.1449 138.275 83.4915 138.096 83.9034C137.919 84.3125 137.765 84.7628 137.631 85.2543C137.498 85.7429 137.392 86.2486 137.316 86.7713C137.242 87.294 137.205 87.8097 137.205 88.3182C137.205 88.9943 137.27 89.6804 137.401 90.3764C137.532 91.0724 137.708 91.7187 137.929 92.3153C138.151 92.9119 138.398 93.3977 138.671 93.7727H137.784C137.265 93.0142 136.864 92.1847 136.583 91.2841C136.304 90.3807 136.165 89.392 136.165 88.3182ZM140.155 92V85.4545H141.161V92H140.155ZM140.666 84.3636C140.47 84.3636 140.301 84.2969 140.159 84.1634C140.02 84.0298 139.95 83.8693 139.95 83.6818C139.95 83.4943 140.02 83.3338 140.159 83.2003C140.301 83.0668 140.47 83 140.666 83C140.862 83 141.03 83.0668 141.169 83.2003C141.311 83.3338 141.382 83.4943 141.382 83.6818C141.382 83.8693 141.311 84.0298 141.169 84.1634C141.03 84.2969 140.862 84.3636 140.666 84.3636ZM144.008 88.0625V92H143.002V85.4545H143.974V86.4773H144.059C144.213 86.1449 144.446 85.8778 144.758 85.6761C145.071 85.4716 145.474 85.3693 145.968 85.3693C146.412 85.3693 146.799 85.4602 147.132 85.642C147.464 85.821 147.723 86.0938 147.907 86.4602C148.092 86.8239 148.184 87.2841 148.184 87.8409V92H147.179V87.9091C147.179 87.3949 147.045 86.9943 146.778 86.7074C146.511 86.4176 146.145 86.2727 145.679 86.2727C145.358 86.2727 145.071 86.3423 144.818 86.4815C144.568 86.6207 144.37 86.8239 144.225 87.0909C144.081 87.358 144.008 87.6818 144.008 88.0625ZM150.022 92V85.4545H151.028V92H150.022ZM150.533 84.3636C150.337 84.3636 150.168 84.2969 150.026 84.1634C149.887 84.0298 149.817 83.8693 149.817 83.6818C149.817 83.4943 149.887 83.3338 150.026 83.2003C150.168 83.0668 150.337 83 150.533 83C150.729 83 150.897 83.0668 151.036 83.2003C151.178 83.3338 151.249 83.4943 151.249 83.6818C151.249 83.8693 151.178 84.0298 151.036 84.1634C150.897 84.2969 150.729 84.3636 150.533 84.3636ZM155.716 85.4545V86.3068H152.324V85.4545H155.716ZM153.313 83.8864H154.319V90.125C154.319 90.4091 154.36 90.6222 154.442 90.7642C154.527 90.9034 154.635 90.9972 154.766 91.0455C154.9 91.0909 155.04 91.1136 155.188 91.1136C155.299 91.1136 155.39 91.108 155.461 91.0966C155.532 91.0824 155.588 91.071 155.631 91.0625L155.836 91.9659C155.767 91.9915 155.672 92.017 155.55 92.0426C155.428 92.071 155.273 92.0852 155.086 92.0852C154.801 92.0852 154.523 92.0241 154.25 91.902C153.98 91.7798 153.756 91.5938 153.577 91.3438C153.401 91.0938 153.313 90.7784 153.313 90.3977V83.8864ZM157.229 92V85.4545H158.235V92H157.229ZM157.74 84.3636C157.544 84.3636 157.375 84.2969 157.233 84.1634C157.094 84.0298 157.025 83.8693 157.025 83.6818C157.025 83.4943 157.094 83.3338 157.233 83.2003C157.375 83.0668 157.544 83 157.74 83C157.936 83 158.104 83.0668 158.243 83.2003C158.385 83.3338 158.456 83.4943 158.456 83.6818C158.456 83.8693 158.385 84.0298 158.243 84.1634C158.104 84.2969 157.936 84.3636 157.74 84.3636ZM162.003 92.1534C161.588 92.1534 161.212 92.0753 160.874 91.919C160.536 91.7599 160.267 91.5312 160.068 91.233C159.869 90.9318 159.77 90.5682 159.77 90.142C159.77 89.767 159.844 89.4631 159.991 89.2301C160.139 88.9943 160.337 88.8097 160.584 88.6761C160.831 88.5426 161.104 88.4432 161.402 88.3778C161.703 88.3097 162.006 88.2557 162.31 88.2159C162.707 88.1648 163.03 88.1264 163.277 88.1009C163.527 88.0724 163.709 88.0256 163.822 87.9602C163.939 87.8949 163.997 87.7812 163.997 87.6193V87.5852C163.997 87.1648 163.882 86.8381 163.652 86.6051C163.425 86.3722 163.08 86.2557 162.616 86.2557C162.136 86.2557 161.76 86.3608 161.487 86.571C161.214 86.7812 161.023 87.0057 160.912 87.2443L159.957 86.9034C160.128 86.5057 160.355 86.196 160.639 85.9744C160.926 85.75 161.239 85.5937 161.577 85.5057C161.918 85.4148 162.253 85.3693 162.582 85.3693C162.793 85.3693 163.034 85.3949 163.307 85.446C163.582 85.4943 163.848 85.5952 164.104 85.7486C164.362 85.902 164.577 86.1335 164.747 86.4432C164.918 86.7528 165.003 87.1676 165.003 87.6875V92H163.997V91.1136H163.946C163.878 91.2557 163.764 91.4077 163.605 91.5696C163.446 91.7315 163.234 91.8693 162.97 91.983C162.706 92.0966 162.384 92.1534 162.003 92.1534ZM162.156 91.25C162.554 91.25 162.889 91.1719 163.162 91.0156C163.438 90.8594 163.645 90.6577 163.784 90.4105C163.926 90.1634 163.997 89.9034 163.997 89.6307V88.7102C163.955 88.7614 163.861 88.8082 163.716 88.8509C163.574 88.8906 163.409 88.9261 163.222 88.9574C163.037 88.9858 162.857 89.0114 162.68 89.0341C162.507 89.054 162.366 89.071 162.259 89.0852C161.997 89.1193 161.753 89.1747 161.526 89.2514C161.301 89.3253 161.119 89.4375 160.98 89.5881C160.844 89.7358 160.776 89.9375 160.776 90.1932C160.776 90.5426 160.905 90.8068 161.163 90.9858C161.425 91.1619 161.756 91.25 162.156 91.25ZM167.844 83.2727V92H166.838V83.2727H167.844ZM171.834 88.3182C171.834 89.392 171.693 90.3807 171.412 91.2841C171.134 92.1847 170.734 93.0142 170.214 93.7727H169.328C169.533 93.4915 169.723 93.1449 169.899 92.733C170.078 92.3239 170.234 91.875 170.368 91.3864C170.501 90.8949 170.605 90.3878 170.679 89.8651C170.756 89.3395 170.794 88.8239 170.794 88.3182C170.794 87.642 170.729 86.956 170.598 86.2599C170.467 85.5639 170.291 84.9176 170.07 84.321C169.848 83.7244 169.601 83.2386 169.328 82.8636H170.214C170.734 83.6222 171.134 84.4531 171.412 85.3565C171.693 86.2571 171.834 87.2443 171.834 88.3182Z" fill="black"/>
<rect x="104.5" y="307.5" width="99" height="99" rx="49.5" stroke="black"/>
<path d="M141.036 355C140.943 354.713 140.819 354.456 140.666 354.229C140.515 353.999 140.335 353.803 140.124 353.641C139.917 353.479 139.681 353.355 139.417 353.27C139.153 353.185 138.863 353.142 138.548 353.142C138.031 353.142 137.561 353.276 137.137 353.543C136.714 353.81 136.377 354.203 136.127 354.723C135.877 355.243 135.752 355.881 135.752 356.636C135.752 357.392 135.879 358.03 136.132 358.55C136.384 359.07 136.727 359.463 137.159 359.73C137.59 359.997 138.076 360.131 138.616 360.131C139.116 360.131 139.556 360.024 139.937 359.811C140.32 359.595 140.619 359.291 140.832 358.899C141.048 358.504 141.156 358.04 141.156 357.506L141.48 357.574H138.855V356.636H142.178V357.574C142.178 358.293 142.025 358.918 141.718 359.449C141.414 359.98 140.994 360.392 140.457 360.685C139.923 360.974 139.309 361.119 138.616 361.119C137.843 361.119 137.164 360.938 136.579 360.574C135.997 360.21 135.542 359.693 135.215 359.023C134.892 358.352 134.73 357.557 134.73 356.636C134.73 355.946 134.822 355.325 135.007 354.774C135.194 354.22 135.458 353.749 135.799 353.359C136.14 352.97 136.544 352.672 137.009 352.464C137.475 352.257 137.988 352.153 138.548 352.153C139.008 352.153 139.437 352.223 139.835 352.362C140.235 352.499 140.592 352.693 140.904 352.946C141.22 353.196 141.482 353.496 141.693 353.845C141.903 354.192 142.048 354.577 142.127 355H141.036ZM143.988 361V352.273H146.937C147.619 352.273 148.179 352.389 148.616 352.622C149.054 352.852 149.378 353.169 149.588 353.572C149.798 353.976 149.903 354.435 149.903 354.949C149.903 355.463 149.798 355.919 149.588 356.317C149.378 356.714 149.055 357.027 148.621 357.254C148.186 357.479 147.631 357.591 146.954 357.591H144.568V356.636H146.92C147.386 356.636 147.761 356.568 148.045 356.432C148.332 356.295 148.54 356.102 148.667 355.852C148.798 355.599 148.863 355.298 148.863 354.949C148.863 354.599 148.798 354.294 148.667 354.033C148.537 353.771 148.328 353.57 148.041 353.428C147.754 353.283 147.375 353.21 146.903 353.21H145.045V361H143.988ZM148.096 357.08L150.244 361H149.017L146.903 357.08H148.096ZM151.664 361V352.273H156.931V353.21H152.721V356.159H156.659V357.097H152.721V360.062H156.999V361H151.664ZM158.836 361V352.273H164.103V353.21H159.893V356.159H163.83V357.097H159.893V360.062H164.171V361H158.836ZM172.928 352.273V361H171.906L167.15 354.148H167.065V361H166.008V352.273H167.031L171.803 359.142H171.889V352.273H172.928Z" fill="black"/>
<rect x="104.5" y="174.5" width="99" height="99" rx="49.5" stroke="black"/>
<path d="M129.885 219.273H131.095L133.516 223.347H133.618L136.038 219.273H137.249L134.095 224.403V228H133.038V224.403L129.885 219.273ZM138.615 228V219.273H143.882V220.21H139.672V223.159H143.61V224.097H139.672V227.062H143.951V228H138.615ZM145.787 228V219.273H146.844V227.062H150.901V228H145.787ZM152.537 228V219.273H153.594V227.062H157.651V228H152.537ZM166.311 223.636C166.311 224.557 166.145 225.352 165.812 226.023C165.48 226.693 165.024 227.21 164.445 227.574C163.865 227.938 163.203 228.119 162.459 228.119C161.714 228.119 161.053 227.938 160.473 227.574C159.893 227.21 159.438 226.693 159.105 226.023C158.773 225.352 158.607 224.557 158.607 223.636C158.607 222.716 158.773 221.92 159.105 221.25C159.438 220.58 159.893 220.062 160.473 219.699C161.053 219.335 161.714 219.153 162.459 219.153C163.203 219.153 163.865 219.335 164.445 219.699C165.024 220.062 165.48 220.58 165.812 221.25C166.145 221.92 166.311 222.716 166.311 223.636ZM165.288 223.636C165.288 222.881 165.162 222.243 164.909 221.723C164.659 221.203 164.32 220.81 163.891 220.543C163.464 220.276 162.987 220.142 162.459 220.142C161.93 220.142 161.452 220.276 161.023 220.543C160.597 220.81 160.257 221.203 160.004 221.723C159.754 222.243 159.629 222.881 159.629 223.636C159.629 224.392 159.754 225.03 160.004 225.55C160.257 226.07 160.597 226.463 161.023 226.73C161.452 226.997 161.93 227.131 162.459 227.131C162.987 227.131 163.464 226.997 163.891 226.73C164.32 226.463 164.659 226.07 164.909 225.55C165.162 225.03 165.288 224.392 165.288 223.636ZM169.673 228L167.287 219.273H168.361L170.185 226.381H170.27L172.128 219.273H173.321L175.179 226.381H175.264L177.088 219.273H178.162L175.776 228H174.685L172.759 221.045H172.69L170.764 228H169.673Z" fill="black"/>
<path d="M113.212 5.45455C113.161 5.02273 112.954 4.6875 112.59 4.44886C112.227 4.21023 111.781 4.09091 111.252 4.09091C110.866 4.09091 110.528 4.15341 110.238 4.27841C109.951 4.40341 109.727 4.57528 109.565 4.79403C109.406 5.01278 109.326 5.26136 109.326 5.53977C109.326 5.77273 109.381 5.97301 109.492 6.14062C109.606 6.3054 109.751 6.44318 109.927 6.55398C110.103 6.66193 110.288 6.75142 110.481 6.82244C110.674 6.89062 110.852 6.94602 111.013 6.98864L111.9 7.22727C112.127 7.28693 112.38 7.36932 112.658 7.47443C112.94 7.57955 113.208 7.72301 113.464 7.90483C113.722 8.08381 113.935 8.31392 114.103 8.59517C114.271 8.87642 114.354 9.22159 114.354 9.63068C114.354 10.1023 114.231 10.5284 113.984 10.9091C113.739 11.2898 113.381 11.5923 112.91 11.8168C112.441 12.0412 111.871 12.1534 111.201 12.1534C110.576 12.1534 110.035 12.0526 109.577 11.8509C109.123 11.6491 108.765 11.3679 108.504 11.0071C108.245 10.6463 108.099 10.2273 108.065 9.75H109.156C109.184 10.0795 109.295 10.3523 109.488 10.5682C109.684 10.7812 109.931 10.9403 110.229 11.0455C110.531 11.1477 110.854 11.1989 111.201 11.1989C111.604 11.1989 111.967 11.1335 112.288 11.0028C112.609 10.8693 112.863 10.6847 113.05 10.4489C113.238 10.2102 113.332 9.93182 113.332 9.61364C113.332 9.32386 113.251 9.08807 113.089 8.90625C112.927 8.72443 112.714 8.5767 112.45 8.46307C112.185 8.34943 111.9 8.25 111.593 8.16477L110.519 7.85795C109.837 7.66193 109.298 7.3821 108.9 7.01847C108.502 6.65483 108.303 6.17898 108.303 5.59091C108.303 5.10227 108.435 4.67614 108.7 4.3125C108.967 3.94602 109.325 3.66193 109.773 3.46023C110.225 3.25568 110.729 3.15341 111.286 3.15341C111.849 3.15341 112.349 3.25426 112.786 3.45597C113.224 3.65483 113.57 3.92756 113.826 4.27415C114.085 4.62074 114.221 5.0142 114.235 5.45455H113.212ZM118.802 5.45455V6.30682H115.41V5.45455H118.802ZM116.399 3.88636H117.404V10.125C117.404 10.4091 117.446 10.6222 117.528 10.7642C117.613 10.9034 117.721 10.9972 117.852 11.0455C117.985 11.0909 118.126 11.1136 118.274 11.1136C118.385 11.1136 118.475 11.108 118.547 11.0966C118.618 11.0824 118.674 11.071 118.717 11.0625L118.922 11.9659C118.853 11.9915 118.758 12.017 118.636 12.0426C118.514 12.071 118.359 12.0852 118.172 12.0852C117.887 12.0852 117.609 12.0241 117.336 11.902C117.066 11.7798 116.842 11.5938 116.663 11.3438C116.487 11.0938 116.399 10.7784 116.399 10.3977V3.88636ZM122.241 12.1534C121.826 12.1534 121.45 12.0753 121.112 11.919C120.774 11.7599 120.505 11.5312 120.306 11.233C120.108 10.9318 120.008 10.5682 120.008 10.142C120.008 9.76705 120.082 9.46307 120.23 9.23011C120.377 8.99432 120.575 8.80966 120.822 8.67614C121.069 8.54261 121.342 8.44318 121.64 8.37784C121.941 8.30966 122.244 8.25568 122.548 8.21591C122.946 8.16477 123.268 8.12642 123.515 8.10085C123.765 8.07244 123.947 8.02557 124.061 7.96023C124.177 7.89489 124.235 7.78125 124.235 7.61932V7.58523C124.235 7.16477 124.12 6.83807 123.89 6.60511C123.663 6.37216 123.318 6.25568 122.855 6.25568C122.375 6.25568 121.998 6.3608 121.725 6.57102C121.453 6.78125 121.261 7.00568 121.15 7.24432L120.196 6.90341C120.366 6.50568 120.593 6.19602 120.877 5.97443C121.164 5.75 121.477 5.59375 121.815 5.50568C122.156 5.41477 122.491 5.36932 122.821 5.36932C123.031 5.36932 123.272 5.39489 123.545 5.44602C123.821 5.49432 124.086 5.59517 124.342 5.74858C124.6 5.90199 124.815 6.13352 124.985 6.44318C125.156 6.75284 125.241 7.16761 125.241 7.6875V12H124.235V11.1136H124.184C124.116 11.2557 124.002 11.4077 123.843 11.5696C123.684 11.7315 123.473 11.8693 123.208 11.983C122.944 12.0966 122.622 12.1534 122.241 12.1534ZM122.395 11.25C122.792 11.25 123.127 11.1719 123.4 11.0156C123.676 10.8594 123.883 10.6577 124.022 10.4105C124.164 10.1634 124.235 9.90341 124.235 9.63068V8.71023C124.193 8.76136 124.099 8.80824 123.954 8.85085C123.812 8.89062 123.647 8.92614 123.46 8.95739C123.275 8.9858 123.095 9.01136 122.919 9.03409C122.745 9.05398 122.605 9.07102 122.497 9.08523C122.235 9.11932 121.991 9.17472 121.764 9.25142C121.539 9.32528 121.358 9.4375 121.218 9.58807C121.082 9.7358 121.014 9.9375 121.014 10.1932C121.014 10.5426 121.143 10.8068 121.402 10.9858C121.663 11.1619 121.994 11.25 122.395 11.25ZM129.923 5.45455V6.30682H126.531V5.45455H129.923ZM127.52 3.88636H128.526V10.125C128.526 10.4091 128.567 10.6222 128.649 10.7642C128.734 10.9034 128.842 10.9972 128.973 11.0455C129.107 11.0909 129.247 11.1136 129.395 11.1136C129.506 11.1136 129.597 11.108 129.668 11.0966C129.739 11.0824 129.795 11.071 129.838 11.0625L130.043 11.9659C129.974 11.9915 129.879 12.017 129.757 12.0426C129.635 12.071 129.48 12.0852 129.293 12.0852C129.009 12.0852 128.73 12.0241 128.457 11.902C128.188 11.7798 127.963 11.5938 127.784 11.3438C127.608 11.0938 127.52 10.7784 127.52 10.3977V3.88636ZM134.11 12.1364C133.479 12.1364 132.935 11.9972 132.478 11.7188C132.023 11.4375 131.673 11.0455 131.425 10.5426C131.181 10.0369 131.059 9.44886 131.059 8.77841C131.059 8.10795 131.181 7.51705 131.425 7.00568C131.673 6.49148 132.016 6.09091 132.457 5.80398C132.9 5.5142 133.417 5.36932 134.008 5.36932C134.349 5.36932 134.685 5.42614 135.018 5.53977C135.35 5.65341 135.653 5.83807 135.925 6.09375C136.198 6.34659 136.415 6.68182 136.577 7.09943C136.739 7.51705 136.82 8.03125 136.82 8.64205V9.06818H131.775V8.19886H135.798C135.798 7.82955 135.724 7.5 135.576 7.21023C135.431 6.92045 135.224 6.69176 134.954 6.52415C134.687 6.35653 134.371 6.27273 134.008 6.27273C133.607 6.27273 133.261 6.37216 132.968 6.57102C132.678 6.76705 132.455 7.02273 132.299 7.33807C132.143 7.65341 132.065 7.99148 132.065 8.35227V8.93182C132.065 9.42614 132.15 9.84517 132.32 10.1889C132.494 10.5298 132.734 10.7898 133.04 10.9688C133.347 11.1449 133.704 11.233 134.11 11.233C134.374 11.233 134.613 11.196 134.826 11.1222C135.042 11.0455 135.228 10.9318 135.384 10.7812C135.54 10.6278 135.661 10.4375 135.746 10.2102L136.718 10.483C136.616 10.8125 136.444 11.1023 136.202 11.3523C135.961 11.5994 135.663 11.7926 135.308 11.9318C134.952 12.0682 134.553 12.1364 134.11 12.1364ZM143.651 12.1534C143.237 12.1534 142.86 12.0753 142.522 11.919C142.184 11.7599 141.915 11.5312 141.717 11.233C141.518 10.9318 141.418 10.5682 141.418 10.142C141.418 9.76705 141.492 9.46307 141.64 9.23011C141.788 8.99432 141.985 8.80966 142.232 8.67614C142.479 8.54261 142.752 8.44318 143.05 8.37784C143.352 8.30966 143.654 8.25568 143.958 8.21591C144.356 8.16477 144.678 8.12642 144.925 8.10085C145.175 8.07244 145.357 8.02557 145.471 7.96023C145.587 7.89489 145.646 7.78125 145.646 7.61932V7.58523C145.646 7.16477 145.531 6.83807 145.3 6.60511C145.073 6.37216 144.728 6.25568 144.265 6.25568C143.785 6.25568 143.408 6.3608 143.136 6.57102C142.863 6.78125 142.671 7.00568 142.56 7.24432L141.606 6.90341C141.776 6.50568 142.004 6.19602 142.288 5.97443C142.575 5.75 142.887 5.59375 143.225 5.50568C143.566 5.41477 143.901 5.36932 144.231 5.36932C144.441 5.36932 144.683 5.39489 144.955 5.44602C145.231 5.49432 145.496 5.59517 145.752 5.74858C146.011 5.90199 146.225 6.13352 146.396 6.44318C146.566 6.75284 146.651 7.16761 146.651 7.6875V12H145.646V11.1136H145.594C145.526 11.2557 145.413 11.4077 145.254 11.5696C145.094 11.7315 144.883 11.8693 144.619 11.983C144.354 12.0966 144.032 12.1534 143.651 12.1534ZM143.805 11.25C144.202 11.25 144.538 11.1719 144.81 11.0156C145.086 10.8594 145.293 10.6577 145.433 10.4105C145.575 10.1634 145.646 9.90341 145.646 9.63068V8.71023C145.603 8.76136 145.509 8.80824 145.364 8.85085C145.222 8.89062 145.058 8.92614 144.87 8.95739C144.685 8.9858 144.505 9.01136 144.329 9.03409C144.156 9.05398 144.015 9.07102 143.907 9.08523C143.646 9.11932 143.401 9.17472 143.174 9.25142C142.95 9.32528 142.768 9.4375 142.629 9.58807C142.492 9.7358 142.424 9.9375 142.424 10.1932C142.424 10.5426 142.553 10.8068 142.812 10.9858C143.073 11.1619 143.404 11.25 143.805 11.25ZM151.146 12.1364C150.532 12.1364 150.004 11.9915 149.561 11.7017C149.118 11.4119 148.777 11.0128 148.538 10.5043C148.299 9.99574 148.18 9.41477 148.18 8.76136C148.18 8.09659 148.302 7.50994 148.547 7.00142C148.794 6.49006 149.137 6.09091 149.578 5.80398C150.021 5.5142 150.538 5.36932 151.129 5.36932C151.589 5.36932 152.004 5.45455 152.373 5.625C152.743 5.79545 153.045 6.03409 153.281 6.34091C153.517 6.64773 153.663 7.00568 153.72 7.41477H152.714C152.637 7.11648 152.467 6.85227 152.203 6.62216C151.941 6.3892 151.589 6.27273 151.146 6.27273C150.754 6.27273 150.41 6.375 150.115 6.57955C149.822 6.78125 149.593 7.06676 149.429 7.43608C149.267 7.80256 149.186 8.23295 149.186 8.72727C149.186 9.23295 149.265 9.6733 149.424 10.0483C149.586 10.4233 149.814 10.7145 150.106 10.9219C150.402 11.1293 150.748 11.233 151.146 11.233C151.407 11.233 151.645 11.1875 151.858 11.0966C152.071 11.0057 152.251 10.875 152.399 10.7045C152.547 10.5341 152.652 10.3295 152.714 10.0909H153.72C153.663 10.4773 153.522 10.8253 153.298 11.1349C153.076 11.4418 152.782 11.6861 152.416 11.8679C152.052 12.0469 151.629 12.1364 151.146 12.1364ZM158.037 5.45455V6.30682H154.645V5.45455H158.037ZM155.633 3.88636H156.639V10.125C156.639 10.4091 156.68 10.6222 156.762 10.7642C156.848 10.9034 156.956 10.9972 157.086 11.0455C157.22 11.0909 157.36 11.1136 157.508 11.1136C157.619 11.1136 157.71 11.108 157.781 11.0966C157.852 11.0824 157.909 11.071 157.951 11.0625L158.156 11.9659C158.088 11.9915 157.993 12.017 157.87 12.0426C157.748 12.071 157.593 12.0852 157.406 12.0852C157.122 12.0852 156.843 12.0241 156.571 11.902C156.301 11.7798 156.076 11.5938 155.897 11.3438C155.721 11.0938 155.633 10.7784 155.633 10.3977V3.88636ZM159.549 12V5.45455H160.555V12H159.549ZM160.061 4.36364C159.865 4.36364 159.696 4.29688 159.554 4.16335C159.414 4.02983 159.345 3.86932 159.345 3.68182C159.345 3.49432 159.414 3.33381 159.554 3.20028C159.696 3.06676 159.865 3 160.061 3C160.257 3 160.424 3.06676 160.564 3.20028C160.706 3.33381 160.777 3.49432 160.777 3.68182C160.777 3.86932 160.706 4.02983 160.564 4.16335C160.424 4.29688 160.257 4.36364 160.061 4.36364ZM167.749 5.45455L165.329 12H164.306L161.886 5.45455H162.977L164.783 10.6705H164.852L166.658 5.45455H167.749ZM171.587 12.1364C170.956 12.1364 170.412 11.9972 169.955 11.7188C169.5 11.4375 169.149 11.0455 168.902 10.5426C168.658 10.0369 168.536 9.44886 168.536 8.77841C168.536 8.10795 168.658 7.51705 168.902 7.00568C169.149 6.49148 169.493 6.09091 169.933 5.80398C170.376 5.5142 170.893 5.36932 171.484 5.36932C171.825 5.36932 172.162 5.42614 172.494 5.53977C172.827 5.65341 173.129 5.83807 173.402 6.09375C173.675 6.34659 173.892 6.68182 174.054 7.09943C174.216 7.51705 174.297 8.03125 174.297 8.64205V9.06818H169.251V8.19886H173.274C173.274 7.82955 173.2 7.5 173.053 7.21023C172.908 6.92045 172.7 6.69176 172.43 6.52415C172.163 6.35653 171.848 6.27273 171.484 6.27273C171.084 6.27273 170.737 6.37216 170.445 6.57102C170.155 6.76705 169.932 7.02273 169.776 7.33807C169.619 7.65341 169.541 7.99148 169.541 8.35227V8.93182C169.541 9.42614 169.626 9.84517 169.797 10.1889C169.97 10.5298 170.21 10.7898 170.517 10.9688C170.824 11.1449 171.18 11.233 171.587 11.233C171.851 11.233 172.089 11.196 172.303 11.1222C172.518 11.0455 172.705 10.9318 172.861 10.7812C173.017 10.6278 173.138 10.4375 173.223 10.2102L174.195 10.483C174.092 10.8125 173.92 11.1023 173.679 11.3523C173.438 11.5994 173.139 11.7926 172.784 11.9318C172.429 12.0682 172.03 12.1364 171.587 12.1364ZM181.861 12.1364C181.247 12.1364 180.719 11.9915 180.276 11.7017C179.832 11.4119 179.491 11.0128 179.253 10.5043C179.014 9.99574 178.895 9.41477 178.895 8.76136C178.895 8.09659 179.017 7.50994 179.261 7.00142C179.509 6.49006 179.852 6.09091 180.293 5.80398C180.736 5.5142 181.253 5.36932 181.844 5.36932C182.304 5.36932 182.719 5.45455 183.088 5.625C183.457 5.79545 183.76 6.03409 183.996 6.34091C184.232 6.64773 184.378 7.00568 184.435 7.41477H183.429C183.352 7.11648 183.182 6.85227 182.918 6.62216C182.656 6.3892 182.304 6.27273 181.861 6.27273C181.469 6.27273 181.125 6.375 180.83 6.57955C180.537 6.78125 180.308 7.06676 180.143 7.43608C179.982 7.80256 179.901 8.23295 179.901 8.72727C179.901 9.23295 179.98 9.6733 180.139 10.0483C180.301 10.4233 180.528 10.7145 180.821 10.9219C181.116 11.1293 181.463 11.233 181.861 11.233C182.122 11.233 182.359 11.1875 182.572 11.0966C182.786 11.0057 182.966 10.875 183.114 10.7045C183.261 10.5341 183.366 10.3295 183.429 10.0909H184.435C184.378 10.4773 184.237 10.8253 184.013 11.1349C183.791 11.4418 183.497 11.6861 183.131 11.8679C182.767 12.0469 182.344 12.1364 181.861 12.1364ZM188.564 12.1364C187.973 12.1364 187.455 11.9957 187.009 11.7145C186.565 11.4332 186.219 11.0398 185.969 10.5341C185.722 10.0284 185.598 9.4375 185.598 8.76136C185.598 8.07955 185.722 7.48437 185.969 6.97585C186.219 6.46733 186.565 6.07244 187.009 5.79119C187.455 5.50994 187.973 5.36932 188.564 5.36932C189.155 5.36932 189.672 5.50994 190.115 5.79119C190.561 6.07244 190.908 6.46733 191.155 6.97585C191.405 7.48437 191.53 8.07955 191.53 8.76136C191.53 9.4375 191.405 10.0284 191.155 10.5341C190.908 11.0398 190.561 11.4332 190.115 11.7145C189.672 11.9957 189.155 12.1364 188.564 12.1364ZM188.564 11.233C189.013 11.233 189.382 11.1179 189.672 10.8878C189.962 10.6577 190.176 10.3551 190.315 9.98011C190.455 9.60511 190.524 9.19886 190.524 8.76136C190.524 8.32386 190.455 7.91619 190.315 7.53835C190.176 7.16051 189.962 6.85511 189.672 6.62216C189.382 6.3892 189.013 6.27273 188.564 6.27273C188.115 6.27273 187.746 6.3892 187.456 6.62216C187.166 6.85511 186.952 7.16051 186.812 7.53835C186.673 7.91619 186.604 8.32386 186.604 8.76136C186.604 9.19886 186.673 9.60511 186.812 9.98011C186.952 10.3551 187.166 10.6577 187.456 10.8878C187.746 11.1179 188.115 11.233 188.564 11.233ZM194.071 3.27273V12H193.065V3.27273H194.071ZM198.572 12.1364C197.981 12.1364 197.462 11.9957 197.016 11.7145C196.573 11.4332 196.227 11.0398 195.977 10.5341C195.729 10.0284 195.606 9.4375 195.606 8.76136C195.606 8.07955 195.729 7.48437 195.977 6.97585C196.227 6.46733 196.573 6.07244 197.016 5.79119C197.462 5.50994 197.981 5.36932 198.572 5.36932C199.163 5.36932 199.68 5.50994 200.123 5.79119C200.569 6.07244 200.915 6.46733 201.163 6.97585C201.413 7.48437 201.538 8.07955 201.538 8.76136C201.538 9.4375 201.413 10.0284 201.163 10.5341C200.915 11.0398 200.569 11.4332 200.123 11.7145C199.68 11.9957 199.163 12.1364 198.572 12.1364ZM198.572 11.233C199.021 11.233 199.39 11.1179 199.68 10.8878C199.969 10.6577 200.184 10.3551 200.323 9.98011C200.462 9.60511 200.532 9.19886 200.532 8.76136C200.532 8.32386 200.462 7.91619 200.323 7.53835C200.184 7.16051 199.969 6.85511 199.68 6.62216C199.39 6.3892 199.021 6.27273 198.572 6.27273C198.123 6.27273 197.754 6.3892 197.464 6.62216C197.174 6.85511 196.96 7.16051 196.82 7.53835C196.681 7.91619 196.612 8.32386 196.612 8.76136C196.612 9.19886 196.681 9.60511 196.82 9.98011C196.96 10.3551 197.174 10.6577 197.464 10.8878C197.754 11.1179 198.123 11.233 198.572 11.233ZM203.073 12V5.45455H204.044V6.44318H204.113C204.232 6.11932 204.448 5.85653 204.76 5.65483C205.073 5.45312 205.425 5.35227 205.817 5.35227C205.891 5.35227 205.983 5.35369 206.094 5.35653C206.205 5.35937 206.289 5.36364 206.346 5.36932V6.39205C206.311 6.38352 206.233 6.37074 206.111 6.35369C205.992 6.33381 205.865 6.32386 205.732 6.32386C205.414 6.32386 205.13 6.39062 204.88 6.52415C204.632 6.65483 204.436 6.83665 204.292 7.0696C204.15 7.29972 204.078 7.5625 204.078 7.85795V12H203.073Z" fill="black"/>
<path d="M208 80L215.815 86.7588C222.856 92.8485 228.507 100.38 232.386 108.842V108.842C235.766 116.216 237.735 124.156 238.194 132.254L238.625 139.874C238.875 144.286 238.799 148.709 238.399 153.109L237.746 160.295C236.921 169.374 234.659 178.264 231.044 186.634L229.696 189.757C227.905 193.904 225.63 197.826 222.92 201.44V201.44C219.656 205.791 215.791 209.656 211.44 212.92L208 215.5" stroke="black"/>
<path d="M206.51 215.902C206.456 216.173 206.631 216.436 206.902 216.49L211.315 217.373C211.585 217.427 211.849 217.251 211.903 216.981C211.957 216.71 211.781 216.446 211.511 216.392L207.588 215.608L208.373 211.685C208.427 211.415 208.251 211.151 207.981 211.097C207.71 211.043 207.446 211.219 207.392 211.489L206.51 215.902ZM209.723 213.584L206.723 215.584L207.277 216.416L210.277 214.416L209.723 213.584Z" fill="black"/>
<path d="M208 80L215.815 86.7588C222.856 92.8485 228.507 100.38 232.386 108.842V108.842C235.766 116.216 237.735 124.156 238.194 132.254L238.625 139.874C238.875 144.286 238.799 148.709 238.399 153.109L237.746 160.295C236.921 169.374 234.659 178.264 231.044 186.634L229.696 189.757C227.905 193.904 225.63 197.826 222.92 201.44V201.44C219.656 205.791 215.791 209.656 211.44 212.92L208 215.5" stroke="black"/>
<path d="M8.24361 210H7.18679C7.12429 209.696 7.01492 209.429 6.85867 209.199C6.70526 208.969 6.51776 208.776 6.29617 208.619C6.07741 208.46 5.83452 208.341 5.56747 208.261C5.30043 208.182 5.02202 208.142 4.73224 208.142C4.20384 208.142 3.72514 208.276 3.29616 208.543C2.87003 208.81 2.53054 209.203 2.2777 209.723C2.0277 210.243 1.9027 210.881 1.9027 211.636C1.9027 212.392 2.0277 213.03 2.2777 213.55C2.53054 214.07 2.87003 214.463 3.29616 214.73C3.72514 214.997 4.20384 215.131 4.73224 215.131C5.02202 215.131 5.30043 215.091 5.56747 215.011C5.83452 214.932 6.07741 214.814 6.29617 214.658C6.51776 214.499 6.70526 214.304 6.85867 214.074C7.01492 213.841 7.12429 213.574 7.18679 213.273H8.24361C8.16406 213.719 8.01918 214.118 7.80895 214.47C7.59872 214.822 7.33736 215.122 7.02486 215.369C6.71236 215.614 6.36151 215.8 5.9723 215.928C5.58594 216.055 5.17259 216.119 4.73224 216.119C3.98793 216.119 3.32599 215.938 2.74645 215.574C2.1669 215.21 1.71094 214.693 1.37855 214.023C1.04616 213.352 0.879972 212.557 0.879972 211.636C0.879972 210.716 1.04616 209.92 1.37855 209.25C1.71094 208.58 2.1669 208.062 2.74645 207.699C3.32599 207.335 3.98793 207.153 4.73224 207.153C5.17259 207.153 5.58594 207.217 5.9723 207.345C6.36151 207.473 6.71236 207.661 7.02486 207.908C7.33736 208.152 7.59872 208.45 7.80895 208.803C8.01918 209.152 8.16406 209.551 8.24361 210ZM10.8207 207.273V216H9.81499V207.273H10.8207ZM12.6626 216V209.455H13.6683V216H12.6626ZM13.174 208.364C12.978 208.364 12.8089 208.297 12.6669 208.163C12.5277 208.03 12.4581 207.869 12.4581 207.682C12.4581 207.494 12.5277 207.334 12.6669 207.2C12.8089 207.067 12.978 207 13.174 207C13.37 207 13.5376 207.067 13.6768 207.2C13.8189 207.334 13.8899 207.494 13.8899 207.682C13.8899 207.869 13.8189 208.03 13.6768 208.163C13.5376 208.297 13.37 208.364 13.174 208.364ZM18.1694 216.136C17.5558 216.136 17.0273 215.991 16.5842 215.702C16.141 215.412 15.8001 215.013 15.5614 214.504C15.3228 213.996 15.2035 213.415 15.2035 212.761C15.2035 212.097 15.3256 211.51 15.57 211.001C15.8171 210.49 16.1609 210.091 16.6012 209.804C17.0444 209.514 17.5614 209.369 18.1523 209.369C18.6126 209.369 19.0273 209.455 19.3967 209.625C19.766 209.795 20.0685 210.034 20.3043 210.341C20.5401 210.648 20.6864 211.006 20.7433 211.415H19.7376C19.6609 211.116 19.4904 210.852 19.2262 210.622C18.9648 210.389 18.6126 210.273 18.1694 210.273C17.7773 210.273 17.4336 210.375 17.1381 210.58C16.8455 210.781 16.6168 211.067 16.4521 211.436C16.2901 211.803 16.2092 212.233 16.2092 212.727C16.2092 213.233 16.2887 213.673 16.4478 214.048C16.6097 214.423 16.837 214.714 17.1296 214.922C17.4251 215.129 17.7717 215.233 18.1694 215.233C18.4308 215.233 18.668 215.188 18.881 215.097C19.0941 215.006 19.2745 214.875 19.4222 214.705C19.57 214.534 19.6751 214.33 19.7376 214.091H20.7433C20.6864 214.477 20.5458 214.825 20.3214 215.135C20.0998 215.442 19.8058 215.686 19.4393 215.868C19.0756 216.047 18.6523 216.136 18.1694 216.136ZM23.1509 213.614L23.1339 212.369H23.3384L26.2021 209.455H27.4464L24.3952 212.54H24.31L23.1509 213.614ZM22.2134 216V207.273H23.2191V216H22.2134ZM26.3725 216L23.8157 212.761L24.5316 212.062L27.6509 216H26.3725ZM35.0476 216.119C34.4851 216.119 33.9837 216.023 33.5433 215.83C33.1058 215.636 32.7578 215.368 32.4993 215.024C32.2436 214.678 32.1044 214.276 32.0817 213.818H33.1555C33.1783 214.099 33.2749 214.342 33.4453 214.547C33.6158 214.749 33.8388 214.905 34.1143 215.016C34.3899 215.126 34.6953 215.182 35.0305 215.182C35.4055 215.182 35.7379 215.116 36.0277 214.986C36.3175 214.855 36.5447 214.673 36.7095 214.44C36.8743 214.207 36.9567 213.938 36.9567 213.631C36.9567 213.31 36.8771 213.027 36.718 212.783C36.5589 212.536 36.326 212.342 36.0192 212.203C35.7124 212.064 35.3374 211.994 34.8942 211.994H34.1953V211.057H34.8942C35.2408 211.057 35.5447 210.994 35.8061 210.869C36.0703 210.744 36.2763 210.568 36.424 210.341C36.5746 210.114 36.6499 209.847 36.6499 209.54C36.6499 209.244 36.5845 208.987 36.4538 208.768C36.3232 208.55 36.1385 208.379 35.8999 208.257C35.6641 208.135 35.3857 208.074 35.0646 208.074C34.7635 208.074 34.4794 208.129 34.2124 208.24C33.9482 208.348 33.7322 208.506 33.5646 208.713C33.397 208.918 33.3061 209.165 33.2919 209.455H32.2692C32.2862 208.997 32.424 208.597 32.6825 208.253C32.9411 207.906 33.2791 207.636 33.6967 207.443C34.1172 207.25 34.5788 207.153 35.0817 207.153C35.6214 207.153 36.0845 207.263 36.4709 207.482C36.8572 207.697 37.1541 207.983 37.3615 208.338C37.5689 208.693 37.6726 209.077 37.6726 209.489C37.6726 209.98 37.5433 210.399 37.2848 210.746C37.0291 211.092 36.6811 211.332 36.2408 211.466V211.534C36.7919 211.625 37.2223 211.859 37.532 212.237C37.8416 212.612 37.9964 213.077 37.9964 213.631C37.9964 214.105 37.8672 214.531 37.6087 214.909C37.353 215.284 37.0036 215.58 36.5604 215.795C36.1172 216.011 35.6129 216.119 35.0476 216.119Z" fill="black"/>
<path d="M256.275 139H255.218C255.156 138.696 255.046 138.429 254.89 138.199C254.737 137.969 254.549 137.776 254.327 137.619C254.109 137.46 253.866 137.341 253.599 137.261C253.332 137.182 253.053 137.142 252.763 137.142C252.235 137.142 251.756 137.276 251.327 137.543C250.901 137.81 250.562 138.203 250.309 138.723C250.059 139.243 249.934 139.881 249.934 140.636C249.934 141.392 250.059 142.03 250.309 142.55C250.562 143.07 250.901 143.463 251.327 143.73C251.756 143.997 252.235 144.131 252.763 144.131C253.053 144.131 253.332 144.091 253.599 144.011C253.866 143.932 254.109 143.814 254.327 143.658C254.549 143.499 254.737 143.304 254.89 143.074C255.046 142.841 255.156 142.574 255.218 142.273H256.275C256.195 142.719 256.05 143.118 255.84 143.47C255.63 143.822 255.369 144.122 255.056 144.369C254.744 144.614 254.393 144.8 254.004 144.928C253.617 145.055 253.204 145.119 252.763 145.119C252.019 145.119 251.357 144.938 250.778 144.574C250.198 144.21 249.742 143.693 249.41 143.023C249.077 142.352 248.911 141.557 248.911 140.636C248.911 139.716 249.077 138.92 249.41 138.25C249.742 137.58 250.198 137.062 250.778 136.699C251.357 136.335 252.019 136.153 252.763 136.153C253.204 136.153 253.617 136.217 254.004 136.345C254.393 136.473 254.744 136.661 255.056 136.908C255.369 137.152 255.63 137.45 255.84 137.803C256.05 138.152 256.195 138.551 256.275 139ZM258.852 136.273V145H257.846V136.273H258.852ZM260.694 145V138.455H261.7V145H260.694ZM261.205 137.364C261.009 137.364 260.84 137.297 260.698 137.163C260.559 137.03 260.489 136.869 260.489 136.682C260.489 136.494 260.559 136.334 260.698 136.2C260.84 136.067 261.009 136 261.205 136C261.401 136 261.569 136.067 261.708 136.2C261.85 136.334 261.921 136.494 261.921 136.682C261.921 136.869 261.85 137.03 261.708 137.163C261.569 137.297 261.401 137.364 261.205 137.364ZM266.201 145.136C265.587 145.136 265.059 144.991 264.615 144.702C264.172 144.412 263.831 144.013 263.593 143.504C263.354 142.996 263.235 142.415 263.235 141.761C263.235 141.097 263.357 140.51 263.601 140.001C263.848 139.49 264.192 139.091 264.632 138.804C265.076 138.514 265.593 138.369 266.184 138.369C266.644 138.369 267.059 138.455 267.428 138.625C267.797 138.795 268.1 139.034 268.336 139.341C268.571 139.648 268.718 140.006 268.775 140.415H267.769C267.692 140.116 267.522 139.852 267.257 139.622C266.996 139.389 266.644 139.273 266.201 139.273C265.809 139.273 265.465 139.375 265.169 139.58C264.877 139.781 264.648 140.067 264.483 140.436C264.321 140.803 264.24 141.233 264.24 141.727C264.24 142.233 264.32 142.673 264.479 143.048C264.641 143.423 264.868 143.714 265.161 143.922C265.456 144.129 265.803 144.233 266.201 144.233C266.462 144.233 266.699 144.188 266.912 144.097C267.125 144.006 267.306 143.875 267.453 143.705C267.601 143.534 267.706 143.33 267.769 143.091H268.775C268.718 143.477 268.577 143.825 268.353 144.135C268.131 144.442 267.837 144.686 267.471 144.868C267.107 145.047 266.684 145.136 266.201 145.136ZM271.182 142.614L271.165 141.369H271.37L274.233 138.455H275.478L272.426 141.54H272.341L271.182 142.614ZM270.245 145V136.273H271.25V145H270.245ZM274.404 145L271.847 141.761L272.563 141.062L275.682 145H274.404ZM283.198 136.273V145H282.141V137.381H282.09L279.96 138.795V137.722L282.141 136.273H283.198Z" fill="black"/>
<path d="M255.431 284H254.374C254.312 283.696 254.202 283.429 254.046 283.199C253.893 282.969 253.705 282.776 253.484 282.619C253.265 282.46 253.022 282.341 252.755 282.261C252.488 282.182 252.21 282.142 251.92 282.142C251.391 282.142 250.913 282.276 250.484 282.543C250.058 282.81 249.718 283.203 249.465 283.723C249.215 284.243 249.09 284.881 249.09 285.636C249.09 286.392 249.215 287.03 249.465 287.55C249.718 288.07 250.058 288.463 250.484 288.73C250.913 288.997 251.391 289.131 251.92 289.131C252.21 289.131 252.488 289.091 252.755 289.011C253.022 288.932 253.265 288.814 253.484 288.658C253.705 288.499 253.893 288.304 254.046 288.074C254.202 287.841 254.312 287.574 254.374 287.273H255.431C255.352 287.719 255.207 288.118 254.996 288.47C254.786 288.822 254.525 289.122 254.212 289.369C253.9 289.614 253.549 289.8 253.16 289.928C252.773 290.055 252.36 290.119 251.92 290.119C251.175 290.119 250.513 289.938 249.934 289.574C249.354 289.21 248.898 288.693 248.566 288.023C248.234 287.352 248.067 286.557 248.067 285.636C248.067 284.716 248.234 283.92 248.566 283.25C248.898 282.58 249.354 282.062 249.934 281.699C250.513 281.335 251.175 281.153 251.92 281.153C252.36 281.153 252.773 281.217 253.16 281.345C253.549 281.473 253.9 281.661 254.212 281.908C254.525 282.152 254.786 282.45 254.996 282.803C255.207 283.152 255.352 283.551 255.431 284ZM258.008 281.273V290H257.002V281.273H258.008ZM259.85 290V283.455H260.856V290H259.85ZM260.362 282.364C260.165 282.364 259.996 282.297 259.854 282.163C259.715 282.03 259.646 281.869 259.646 281.682C259.646 281.494 259.715 281.334 259.854 281.2C259.996 281.067 260.165 281 260.362 281C260.558 281 260.725 281.067 260.864 281.2C261.006 281.334 261.077 281.494 261.077 281.682C261.077 281.869 261.006 282.03 260.864 282.163C260.725 282.297 260.558 282.364 260.362 282.364ZM265.357 290.136C264.743 290.136 264.215 289.991 263.772 289.702C263.328 289.412 262.988 289.013 262.749 288.504C262.51 287.996 262.391 287.415 262.391 286.761C262.391 286.097 262.513 285.51 262.757 285.001C263.005 284.49 263.348 284.091 263.789 283.804C264.232 283.514 264.749 283.369 265.34 283.369C265.8 283.369 266.215 283.455 266.584 283.625C266.953 283.795 267.256 284.034 267.492 284.341C267.728 284.648 267.874 285.006 267.931 285.415H266.925C266.848 285.116 266.678 284.852 266.414 284.622C266.152 284.389 265.8 284.273 265.357 284.273C264.965 284.273 264.621 284.375 264.326 284.58C264.033 284.781 263.804 285.067 263.64 285.436C263.478 285.803 263.397 286.233 263.397 286.727C263.397 287.233 263.476 287.673 263.635 288.048C263.797 288.423 264.025 288.714 264.317 288.922C264.613 289.129 264.959 289.233 265.357 289.233C265.618 289.233 265.855 289.188 266.069 289.097C266.282 289.006 266.462 288.875 266.61 288.705C266.757 288.534 266.863 288.33 266.925 288.091H267.931C267.874 288.477 267.733 288.825 267.509 289.135C267.287 289.442 266.993 289.686 266.627 289.868C266.263 290.047 265.84 290.136 265.357 290.136ZM270.338 287.614L270.321 286.369H270.526L273.39 283.455H274.634L271.583 286.54H271.498L270.338 287.614ZM269.401 290V281.273H270.407V290H269.401ZM273.56 290L271.003 286.761L271.719 286.062L274.838 290H273.56ZM279.286 290V289.233L282.167 286.08C282.505 285.71 282.783 285.389 283.002 285.116C283.221 284.841 283.383 284.582 283.488 284.341C283.596 284.097 283.65 283.841 283.65 283.574C283.65 283.267 283.576 283.001 283.428 282.777C283.283 282.553 283.085 282.379 282.832 282.257C282.579 282.135 282.295 282.074 281.979 282.074C281.644 282.074 281.352 282.143 281.102 282.283C280.854 282.419 280.663 282.611 280.526 282.858C280.393 283.105 280.326 283.395 280.326 283.727H279.32C279.32 283.216 279.438 282.767 279.674 282.381C279.91 281.994 280.231 281.693 280.637 281.477C281.046 281.261 281.505 281.153 282.013 281.153C282.525 281.153 282.978 281.261 283.373 281.477C283.768 281.693 284.077 281.984 284.302 282.351C284.526 282.717 284.638 283.125 284.638 283.574C284.638 283.895 284.58 284.209 284.464 284.516C284.35 284.82 284.151 285.159 283.867 285.534C283.586 285.906 283.195 286.361 282.695 286.898L280.735 288.994V289.062H284.792V290H279.286Z" fill="black"/>
<path d="M208 231L215.815 237.759C222.856 243.849 228.507 251.38 232.386 259.842V259.842C235.766 267.216 237.735 275.156 238.194 283.254L238.625 290.874C238.875 295.286 238.799 299.709 238.399 304.109L237.746 311.295C236.921 320.374 234.659 329.264 231.044 337.634L229.696 340.757C227.905 344.904 225.63 348.826 222.92 352.44V352.44C219.656 356.791 215.791 360.656 211.44 363.92L208 366.5" stroke="black"/>
<path d="M206.51 366.902C206.456 367.173 206.631 367.436 206.902 367.49L211.315 368.373C211.585 368.427 211.849 368.251 211.903 367.981C211.957 367.71 211.781 367.446 211.511 367.392L207.588 366.608L208.373 362.685C208.427 362.415 208.251 362.151 207.981 362.097C207.71 362.043 207.446 362.219 207.392 362.489L206.51 366.902ZM209.723 364.584L206.723 366.584L207.277 367.416L210.277 365.416L209.723 364.584Z" fill="black"/>
<path d="M208 231L215.815 237.759C222.856 243.849 228.507 251.38 232.386 259.842V259.842C235.766 267.216 237.735 275.156 238.194 283.254L238.625 290.874C238.875 295.286 238.799 299.709 238.399 304.109L237.746 311.295C236.921 320.374 234.659 329.264 231.044 337.634L229.696 340.757C227.905 344.904 225.63 348.826 222.92 352.44V352.44C219.656 356.791 215.791 360.656 211.44 363.92L208 366.5" stroke="black"/>
<path d="M100 363V363C83.5588 355.001 70.8064 341.008 64.3641 323.896L61.8276 317.159L55.7759 296.73L51.5862 275.304L46.931 245.408L46 218.502L46 192.592L48.3276 173.657L55.3864 141.05C56.5745 135.562 58.2736 130.196 60.4615 125.025L65.8596 112.265C67.5134 108.356 69.4975 104.595 71.7902 101.023L74.5666 96.6973C80.7178 87.1138 89.567 79.5644 100 75V75" stroke="black"/>
<path d="M103.183 74.2311C103.296 73.9791 103.183 73.6833 102.931 73.5705L98.8231 71.7326C98.571 71.6199 98.2753 71.7328 98.1625 71.9848C98.0497 72.2369 98.1626 72.5327 98.4147 72.6454L102.066 74.2791L100.432 77.9303C100.319 78.1824 100.432 78.4781 100.684 78.5909C100.936 78.7037 101.232 78.5908 101.345 78.3387L103.183 74.2311ZM99.1678 75.9206L102.905 74.494L102.548 73.5598L98.8112 74.9864L99.1678 75.9206Z" fill="black"/>
</svg>
